<?xml version="1.0" standalone="no"?>
<!DOCTYPE svg PUBLIC "-//W3C//DTD SVG 20010904//EN"
 "http://www.w3.org/TR/2001/REC-SVG-20010904/DTD/svg10.dtd">
<svg version="1.0" xmlns="http://www.w3.org/2000/svg"
 width="293.000000pt" height="64.000000pt" viewBox="0 0 293.000000 64.000000"
 preserveAspectRatio="xMidYMid meet">

<g transform="translate(0.000000,64.000000) scale(0.100000,-0.100000)"
fill="#000000" stroke="none">
<path d="M2447 463 c-12 -3 -16 -10 -13 -20 6 -16 -30 -150 -47 -170 -7 -10 2
-13 42 -13 45 0 51 2 51 21 0 11 9 52 21 90 12 38 18 76 15 84 -5 15 -32 18
-69 8z"/>
<path d="M362 434 c-35 -24 -29 -68 13 -100 25 -19 33 -30 26 -37 -8 -8 -18
-4 -34 11 -30 29 -45 28 -57 -4 -14 -36 -13 -44 10 -44 11 0 20 4 20 9 0 6 15
4 33 -3 47 -19 91 -4 108 36 13 31 12 32 -29 67 -23 20 -42 40 -42 44 0 14 27
6 45 -13 10 -11 24 -20 30 -20 12 0 25 29 25 55 0 18 -123 17 -148 -1z"/>
<path d="M1803 390 c-6 -32 -18 -73 -27 -91 -20 -41 -21 -39 12 -39 27 0 29 2
31 47 1 26 3 48 5 50 2 3 12 -18 21 -46 9 -28 23 -51 30 -51 13 0 44 33 77 80
16 24 16 24 6 -17 -6 -24 -14 -43 -19 -43 -5 0 -9 -4 -9 -10 0 -5 23 -10 50
-10 44 0 50 2 50 21 0 28 30 131 41 143 16 18 9 26 -20 26 -45 0 -58 -8 -100
-61 l-39 -49 -7 37 c-11 59 -22 73 -58 73 -32 0 -33 -1 -44 -60z"/>
<path d="M529 381 c-54 -54 -29 -121 46 -121 32 1 65 20 65 39 0 7 -9 9 -23 6
-31 -8 -50 15 -41 49 6 27 24 36 24 12 0 -15 27 -25 48 -19 15 6 16 35 0 51
-7 7 -29 12 -51 12 -29 0 -46 -7 -68 -29z"/>
<path d="M685 402 c-5 -4 -11 -22 -12 -40 -1 -19 -9 -47 -18 -64 -8 -17 -15
-33 -15 -35 0 -1 25 -3 56 -3 43 0 54 3 47 13 -6 7 -5 28 2 55 10 40 11 41 28
25 21 -21 52 -7 52 22 0 27 -31 43 -55 27 -12 -7 -20 -8 -20 -2 0 11 -50 13
-65 2z"/>
<path d="M868 399 c-10 -5 -18 -17 -18 -24 0 -8 8 -15 18 -15 10 0 2 -8 -18
-18 -38 -18 -49 -44 -30 -67 15 -18 70 -20 70 -3 0 9 3 9 12 0 16 -16 65 -15
74 0 5 7 9 34 11 60 2 39 -1 50 -19 63 -25 17 -74 19 -100 4z m44 -51 c-6 -6
-12 -6 -16 1 -4 6 -2 11 3 11 6 0 12 8 12 18 1 15 2 15 6 -2 3 -10 0 -23 -5
-28z m-20 -50 c-7 -7 -12 -8 -12 -2 0 14 12 26 19 19 2 -3 -1 -11 -7 -17z"/>
<path d="M1031 401 c-7 -5 -11 -13 -8 -17 2 -5 -7 -46 -22 -91 l-27 -83 38 0
c21 0 41 0 45 0 4 0 8 6 9 13 0 6 2 18 2 25 1 7 16 12 35 12 44 0 74 23 86 67
8 29 7 42 -4 60 -16 24 -53 31 -72 12 -8 -8 -13 -8 -17 0 -8 13 -45 14 -65 2z
m69 -96 c-16 -43 -23 -22 -8 27 9 29 14 37 16 22 2 -11 -2 -33 -8 -49z"/>
<path d="M1223 404 c-7 -3 -10 -11 -7 -19 6 -15 -31 -142 -47 -162 -9 -10 -1
-13 43 -13 53 0 55 1 50 25 -4 23 -1 25 34 25 52 1 75 20 84 72 13 68 -17 96
-71 68 -13 -7 -19 -7 -19 0 0 10 -45 13 -67 4z m82 -66 c-4 -18 -13 -40 -21
-48 -13 -13 -13 -10 -3 20 6 19 12 41 15 48 8 26 15 10 9 -20z"/>
<path d="M1433 400 c-46 -19 -59 -97 -21 -124 39 -27 118 -15 118 18 0 9 -11
13 -31 12 -18 0 -34 5 -36 12 -3 8 6 12 25 12 17 0 37 3 46 6 19 7 21 45 4 62
-14 14 -73 15 -105 2z m42 -40 c-4 -12 -9 -19 -12 -17 -3 3 -2 15 2 27 4 12 9
19 12 17 3 -3 2 -15 -2 -27z"/>
<path d="M1579 403 c-10 -2 -15 -11 -12 -22 2 -9 -5 -41 -15 -69 l-20 -52 55
0 c43 0 53 3 46 13 -6 7 -5 28 2 55 10 40 11 41 28 25 21 -21 52 -7 52 22 0
27 -31 43 -55 27 -12 -7 -20 -8 -20 -2 0 10 -30 12 -61 3z"/>
<path d="M2085 387 c-34 -29 -39 -92 -10 -113 23 -17 87 -18 103 -2 21 21 14
39 -11 33 -15 -4 -28 -1 -36 9 -12 14 -9 16 26 16 42 0 63 14 63 42 0 42 -92
52 -135 15z m65 -16 c0 -5 -6 -14 -14 -20 -12 -10 -13 -8 -9 8 5 21 23 30 23
12z"/>
<path d="M2270 403 c-19 -7 -30 -24 -24 -35 9 -15 53 -8 64 10 9 15 10 14 8
-8 -3 -21 -8 -25 -31 -22 -55 6 -97 -44 -65 -76 16 -16 68 -16 68 0 0 9 3 9
12 0 16 -16 68 -15 70 1 2 21 4 31 12 66 7 30 5 38 -14 53 -21 17 -69 23 -100
11z m22 -105 c-7 -7 -12 -8 -12 -2 0 14 12 26 19 19 2 -3 -1 -11 -7 -17z"/>
</g>
</svg>
